<svg xmlns="http://www.w3.org/2000/svg">

  <!-- <symbol width="130" height="8" viewBox="0 0 130 8" id="logo">
    <path
      d="M0.454545 1.3267V0.545454H4.88636V1.3267H3.09659V6H2.25852V1.3267H0.454545ZM6.83327 2.51989H8.39577C9.03498 2.51989 9.52385 2.68205 9.86239 3.00639C10.2009 3.33073 10.3702 3.74148 10.3702 4.23864C10.3702 4.56534 10.2944 4.86245 10.1429 5.12997C9.99142 5.39512 9.76888 5.60701 9.47532 5.76562C9.18176 5.92188 8.82191 6 8.39577 6H6.10884V0.545454H6.94691V5.21875H8.39577C8.72721 5.21875 8.99947 5.13116 9.21254 4.95597C9.4256 4.78078 9.53214 4.55587 9.53214 4.28125C9.53214 3.99242 9.4256 3.75687 9.21254 3.57457C8.99947 3.39228 8.72721 3.30114 8.39577 3.30114H6.83327V2.51989ZM11.2367 6V0.545454H12.0748V6H11.2367ZM15.839 7.5625V5.21875H16.2935C16.4048 5.10275 16.5007 4.97727 16.5811 4.84233C16.6616 4.70739 16.7315 4.54759 16.7907 4.36293C16.8522 4.1759 16.9043 3.94863 16.9469 3.68111C16.9895 3.41122 17.0274 3.0857 17.0605 2.70455L17.2452 0.545454H20.7111V5.21875H21.5492V7.5625H20.7111V6H16.677V7.5625H15.839ZM17.2452 5.21875H19.873V1.3267H18.0265L17.8844 2.70455C17.8252 3.27509 17.7518 3.77344 17.6642 4.19957C17.5766 4.62571 17.437 4.96544 17.2452 5.21875ZM24.9485 6.11364C24.4229 6.11364 23.9696 5.99763 23.5884 5.76562C23.2096 5.53125 22.9173 5.20455 22.7113 4.78551C22.5077 4.36411 22.4059 3.87405 22.4059 3.31534C22.4059 2.75663 22.5077 2.2642 22.7113 1.83807C22.9173 1.40956 23.2037 1.07576 23.5707 0.836648C23.94 0.59517 24.3709 0.474432 24.8633 0.474432C25.1474 0.474432 25.4279 0.52178 25.7049 0.616477C25.9819 0.711174 26.234 0.865057 26.4613 1.07812C26.6886 1.28883 26.8697 1.56818 27.0046 1.91619C27.1396 2.2642 27.207 2.69271 27.207 3.2017V3.55682H23.0025V2.83239H26.3548C26.3548 2.52462 26.2932 2.25 26.1701 2.00852C26.0494 1.76705 25.8765 1.57647 25.6516 1.43679C25.4291 1.29711 25.1663 1.22727 24.8633 1.22727C24.5295 1.22727 24.2406 1.31013 23.9968 1.47585C23.7553 1.6392 23.5695 1.85227 23.4393 2.11506C23.3091 2.37784 23.244 2.65956 23.244 2.96023V3.44318C23.244 3.85511 23.315 4.20431 23.457 4.49077C23.6014 4.77486 23.8015 4.99148 24.0572 5.14062C24.3129 5.28741 24.61 5.3608 24.9485 5.3608C25.1687 5.3608 25.3675 5.33002 25.5451 5.26847C25.725 5.20455 25.8801 5.10985 26.0103 4.98438C26.1405 4.85653 26.2411 4.69792 26.3121 4.50852L27.1218 4.7358C27.0366 5.01042 26.8933 5.25189 26.6921 5.46023C26.4909 5.66619 26.2423 5.82718 25.9464 5.94318C25.6504 6.05682 25.3178 6.11364 24.9485 6.11364ZM27.9989 6V5.21875H28.1978C28.3612 5.21875 28.4973 5.18679 28.6062 5.12287C28.7151 5.05658 28.8027 4.94176 28.869 4.77841C28.9376 4.61269 28.9897 4.38305 29.0252 4.08949C29.0631 3.79356 29.0903 3.41714 29.1069 2.96023L29.2063 0.545454H32.8427V6H32.0046V1.3267H30.0018L29.9165 3.27273C29.8976 3.72017 29.8574 4.11435 29.7958 4.45526C29.7366 4.7938 29.6455 5.07789 29.5224 5.30753C29.4016 5.53717 29.2406 5.70999 29.0394 5.82599C28.8382 5.942 28.5861 6 28.283 6H27.9989ZM35.9854 6.12784C35.6398 6.12784 35.3261 6.06274 35.0444 5.93253C34.7627 5.79995 34.5389 5.60938 34.3732 5.3608C34.2075 5.10985 34.1246 4.80682 34.1246 4.4517C34.1246 4.1392 34.1862 3.88589 34.3093 3.69176C34.4324 3.49527 34.5969 3.34138 34.8029 3.23011C35.0089 3.11884 35.2362 3.03598 35.4847 2.98153C35.7357 2.92472 35.9878 2.87973 36.2411 2.84659C36.5726 2.80398 36.8413 2.77202 37.0472 2.75071C37.2556 2.72704 37.4071 2.68797 37.5018 2.63352C37.5988 2.57907 37.6474 2.48437 37.6474 2.34943V2.32102C37.6474 1.97064 37.5515 1.69839 37.3597 1.50426C37.1703 1.31013 36.8827 1.21307 36.4968 1.21307C36.0967 1.21307 35.783 1.30066 35.5558 1.47585C35.3285 1.65104 35.1687 1.83807 35.0763 2.03693L34.2809 1.75284C34.4229 1.4214 34.6123 1.16335 34.8491 0.978693C35.0882 0.791666 35.3486 0.661458 35.6303 0.588068C35.9144 0.512311 36.1938 0.474432 36.4684 0.474432C36.6436 0.474432 36.8448 0.495739 37.0721 0.538352C37.3017 0.578598 37.5231 0.662642 37.7362 0.790483C37.9516 0.918324 38.1303 1.11127 38.2724 1.36932C38.4144 1.62737 38.4854 1.97301 38.4854 2.40625V6H37.6474V5.26136H37.6048C37.5479 5.37973 37.4532 5.50639 37.3207 5.64134C37.1881 5.77628 37.0117 5.8911 36.7915 5.9858C36.5714 6.08049 36.3027 6.12784 35.9854 6.12784ZM36.1133 5.375C36.4447 5.375 36.7241 5.3099 36.9513 5.17969C37.181 5.04948 37.3538 4.88139 37.4698 4.67543C37.5882 4.46946 37.6474 4.25284 37.6474 4.02557V3.25852C37.6119 3.30114 37.5337 3.3402 37.413 3.37571C37.2946 3.40885 37.1573 3.43845 37.0011 3.46449C36.8472 3.48816 36.6969 3.50947 36.5501 3.52841C36.4057 3.54498 36.2885 3.55919 36.1985 3.57102C35.9807 3.59943 35.7771 3.6456 35.5877 3.70952C35.4007 3.77107 35.2492 3.86458 35.1332 3.99006C35.0195 4.11316 34.9627 4.28125 34.9627 4.49432C34.9627 4.78551 35.0704 5.00568 35.2859 5.15483C35.5037 5.30161 35.7795 5.375 36.1133 5.375ZM42.302 6.11364C41.7765 6.11364 41.3231 5.99763 40.9419 5.76562C40.5632 5.53125 40.2708 5.20455 40.0648 4.78551C39.8612 4.36411 39.7594 3.87405 39.7594 3.31534C39.7594 2.75663 39.8612 2.2642 40.0648 1.83807C40.2708 1.40956 40.5572 1.07576 40.9242 0.836648C41.2935 0.59517 41.7244 0.474432 42.2168 0.474432C42.5009 0.474432 42.7814 0.52178 43.0584 0.616477C43.3354 0.711174 43.5875 0.865057 43.8148 1.07812C44.0421 1.28883 44.2232 1.56818 44.3581 1.91619C44.4931 2.2642 44.5605 2.69271 44.5605 3.2017V3.55682H40.356V2.83239H43.7083C43.7083 2.52462 43.6467 2.25 43.5236 2.00852C43.4029 1.76705 43.2301 1.57647 43.0051 1.43679C42.7826 1.29711 42.5198 1.22727 42.2168 1.22727C41.883 1.22727 41.5942 1.31013 41.3503 1.47585C41.1088 1.6392 40.923 1.85227 40.7928 2.11506C40.6626 2.37784 40.5975 2.65956 40.5975 2.96023V3.44318C40.5975 3.85511 40.6685 4.20431 40.8105 4.49077C40.955 4.77486 41.155 4.99148 41.4107 5.14062C41.6664 5.28741 41.9635 5.3608 42.302 5.3608C42.5222 5.3608 42.7211 5.33002 42.8986 5.26847C43.0785 5.20455 43.2336 5.10985 43.3638 4.98438C43.494 4.85653 43.5946 4.69792 43.6657 4.50852L44.4753 4.7358C44.3901 5.01042 44.2469 5.25189 44.0456 5.46023C43.8444 5.66619 43.5958 5.82718 43.2999 5.94318C43.004 6.05682 42.6713 6.11364 42.302 6.11364ZM45.8354 0.545454H46.6735V5.21875H48.7331V0.545454H49.5712V5.21875H51.6309V0.545454H52.4689V6H45.8354V0.545454ZM54.7239 2.51989H56.2864C56.9256 2.51989 57.4145 2.68205 57.753 3.00639C58.0916 3.33073 58.2608 3.74148 58.2608 4.23864C58.2608 4.56534 58.1851 4.86245 58.0336 5.12997C57.882 5.39512 57.6595 5.60701 57.3659 5.76562C57.0724 5.92188 56.7125 6 56.2864 6H53.9995V0.545454H54.8375V5.21875H56.2864C56.6178 5.21875 56.8901 5.13116 57.1032 4.95597C57.3162 4.78078 57.4228 4.55587 57.4228 4.28125C57.4228 3.99242 57.3162 3.75687 57.1032 3.57457C56.8901 3.39228 56.6178 3.30114 56.2864 3.30114H54.7239V2.51989ZM65.9996 2.8892V3.67045H62.9883V2.8892H65.9996ZM63.1871 0.545454V6H62.3491V0.545454H63.1871ZM66.6388 0.545454V6H65.8008V0.545454H66.6388ZM70.4563 6.11364C69.9308 6.11364 69.4774 5.99763 69.0962 5.76562C68.7174 5.53125 68.4251 5.20455 68.2191 4.78551C68.0155 4.36411 67.9137 3.87405 67.9137 3.31534C67.9137 2.75663 68.0155 2.2642 68.2191 1.83807C68.4251 1.40956 68.7115 1.07576 69.0785 0.836648C69.4478 0.59517 69.8787 0.474432 70.3711 0.474432C70.6552 0.474432 70.9357 0.52178 71.2127 0.616477C71.4897 0.711174 71.7418 0.865057 71.9691 1.07812C72.1964 1.28883 72.3775 1.56818 72.5124 1.91619C72.6474 2.2642 72.7148 2.69271 72.7148 3.2017V3.55682H68.5103V2.83239H71.8626C71.8626 2.52462 71.801 2.25 71.6779 2.00852C71.5572 1.76705 71.3844 1.57647 71.1594 1.43679C70.9369 1.29711 70.6741 1.22727 70.3711 1.22727C70.0373 1.22727 69.7485 1.31013 69.5046 1.47585C69.2631 1.6392 69.0773 1.85227 68.9471 2.11506C68.8169 2.37784 68.7518 2.65956 68.7518 2.96023V3.44318C68.7518 3.85511 68.8228 4.20431 68.9648 4.49077C69.1093 4.77486 69.3093 4.99148 69.565 5.14062C69.8207 5.28741 70.1178 5.3608 70.4563 5.3608C70.6765 5.3608 70.8754 5.33002 71.0529 5.26847C71.2328 5.20455 71.3879 5.10985 71.5181 4.98438C71.6483 4.85653 71.7489 4.69792 71.82 4.50852L72.6296 4.7358C72.5444 5.01042 72.4012 5.25189 72.1999 5.46023C71.9987 5.66619 71.7501 5.82718 71.4542 5.94318C71.1583 6.05682 70.8256 6.11364 70.4563 6.11364ZM73.4073 7.5625V5.21875H73.8619C73.9731 5.10275 74.069 4.97727 74.1495 4.84233C74.23 4.70739 74.2998 4.54759 74.359 4.36293C74.4206 4.1759 74.4727 3.94863 74.5153 3.68111C74.5579 3.41122 74.5958 3.0857 74.6289 2.70455L74.8136 0.545454H78.2795V5.21875H79.1175V7.5625H78.2795V6H74.2454V7.5625H73.4073ZM74.8136 5.21875H77.4414V1.3267H75.5948L75.4528 2.70455C75.3936 3.27509 75.3202 3.77344 75.2326 4.19957C75.145 4.62571 75.0053 4.96544 74.8136 5.21875ZM82.4458 6.11364C81.9534 6.11364 81.5214 5.99645 81.1497 5.76207C80.7804 5.5277 80.4915 5.19981 80.2832 4.77841C80.0772 4.35701 79.9743 3.86458 79.9743 3.30114C79.9743 2.73295 80.0772 2.23698 80.2832 1.81321C80.4915 1.38944 80.7804 1.06037 81.1497 0.825994C81.5214 0.591619 81.9534 0.474432 82.4458 0.474432C82.9383 0.474432 83.3691 0.591619 83.7385 0.825994C84.1101 1.06037 84.399 1.38944 84.6049 1.81321C84.8133 2.23698 84.9174 2.73295 84.9174 3.30114C84.9174 3.86458 84.8133 4.35701 84.6049 4.77841C84.399 5.19981 84.1101 5.5277 83.7385 5.76207C83.3691 5.99645 82.9383 6.11364 82.4458 6.11364ZM82.4458 5.3608C82.8199 5.3608 83.1277 5.26491 83.3691 5.07315C83.6106 4.88139 83.7894 4.62926 83.9054 4.31676C84.0214 4.00426 84.0794 3.66572 84.0794 3.30114C84.0794 2.93655 84.0214 2.59683 83.9054 2.28196C83.7894 1.96709 83.6106 1.71259 83.3691 1.51847C83.1277 1.32434 82.8199 1.22727 82.4458 1.22727C82.0718 1.22727 81.764 1.32434 81.5225 1.51847C81.2811 1.71259 81.1023 1.96709 80.9863 2.28196C80.8703 2.59683 80.8123 2.93655 80.8123 3.30114C80.8123 3.66572 80.8703 4.00426 80.9863 4.31676C81.1023 4.62926 81.2811 4.88139 81.5225 5.07315C81.764 5.26491 82.0718 5.3608 82.4458 5.3608ZM88.4126 6.11364C87.9013 6.11364 87.4609 5.9929 87.0916 5.75142C86.7223 5.50994 86.4382 5.17732 86.2393 4.75355C86.0405 4.32978 85.9411 3.84564 85.9411 3.30114C85.9411 2.74716 86.0429 2.25829 86.2464 1.83452C86.4524 1.40838 86.7389 1.07576 87.1058 0.836648C87.4751 0.59517 87.906 0.474432 88.3984 0.474432C88.782 0.474432 89.1276 0.545455 89.4354 0.6875C89.7431 0.829545 89.9953 1.02841 90.1918 1.28409C90.3883 1.53977 90.5102 1.83807 90.5575 2.17898H89.7195C89.6555 1.9304 89.5135 1.71023 89.2933 1.51847C89.0755 1.32434 88.782 1.22727 88.4126 1.22727C88.0859 1.22727 87.7995 1.3125 87.5533 1.48295C87.3094 1.65104 87.1188 1.88897 86.9815 2.19673C86.8466 2.50213 86.7791 2.8608 86.7791 3.27273C86.7791 3.69413 86.8454 4.06108 86.978 4.37358C87.1129 4.68608 87.3023 4.92874 87.5462 5.10156C87.7924 5.27438 88.0812 5.3608 88.4126 5.3608C88.6304 5.3608 88.8281 5.32292 89.0057 5.24716C89.1832 5.1714 89.3336 5.0625 89.4567 4.92045C89.5798 4.77841 89.6674 4.60795 89.7195 4.40909H90.5575C90.5102 4.73106 90.393 5.02107 90.206 5.27912C90.0213 5.5348 89.7763 5.7384 89.4709 5.88991C89.1679 6.03906 88.8151 6.11364 88.4126 6.11364ZM91.353 1.3267V0.545454H95.7848V1.3267H93.995V6H93.157V1.3267H91.353ZM98.3292 6.12784C97.9835 6.12784 97.6699 6.06274 97.3881 5.93253C97.1064 5.79995 96.8827 5.60938 96.717 5.3608C96.5513 5.10985 96.4684 4.80682 96.4684 4.4517C96.4684 4.1392 96.5299 3.88589 96.6531 3.69176C96.7762 3.49527 96.9407 3.34138 97.1467 3.23011C97.3526 3.11884 97.5799 3.03598 97.8285 2.98153C98.0794 2.92472 98.3316 2.87973 98.5849 2.84659C98.9163 2.80398 99.185 2.77202 99.391 2.75071C99.5993 2.72704 99.7508 2.68797 99.8455 2.63352C99.9426 2.57907 99.9911 2.48437 99.9911 2.34943V2.32102C99.9911 1.97064 99.8952 1.69839 99.7035 1.50426C99.5141 1.31013 99.2264 1.21307 98.8406 1.21307C98.4405 1.21307 98.1268 1.30066 97.8995 1.47585C97.6722 1.65104 97.5124 1.83807 97.4201 2.03693L96.6246 1.75284C96.7667 1.4214 96.9561 1.16335 97.1928 0.978693C97.4319 0.791666 97.6924 0.661458 97.9741 0.588068C98.2582 0.512311 98.5375 0.474432 98.8121 0.474432C98.9873 0.474432 99.1886 0.495739 99.4158 0.538352C99.6455 0.578598 99.8668 0.662642 100.08 0.790483C100.295 0.918324 100.474 1.11127 100.616 1.36932C100.758 1.62737 100.829 1.97301 100.829 2.40625V6H99.9911V5.26136H99.9485C99.8917 5.37973 99.797 5.50639 99.6644 5.64134C99.5318 5.77628 99.3555 5.8911 99.1353 5.9858C98.9151 6.08049 98.6464 6.12784 98.3292 6.12784ZM98.457 5.375C98.7885 5.375 99.0678 5.3099 99.2951 5.17969C99.5247 5.04948 99.6976 4.88139 99.8136 4.67543C99.9319 4.46946 99.9911 4.25284 99.9911 4.02557V3.25852C99.9556 3.30114 99.8775 3.3402 99.7567 3.37571C99.6384 3.40885 99.5011 3.43845 99.3448 3.46449C99.1909 3.48816 99.0406 3.50947 98.8938 3.52841C98.7494 3.54498 98.6322 3.55919 98.5423 3.57102C98.3245 3.59943 98.1209 3.6456 97.9315 3.70952C97.7444 3.77107 97.5929 3.86458 97.4769 3.99006C97.3633 4.11316 97.3065 4.28125 97.3065 4.49432C97.3065 4.78551 97.4142 5.00568 97.6296 5.15483C97.8474 5.30161 98.1232 5.375 98.457 5.375ZM101.617 1.3267V0.545454H106.048V1.3267H104.259V6H103.421V1.3267H101.617ZM109.204 6.11364C108.711 6.11364 108.279 5.99645 107.907 5.76207C107.538 5.5277 107.249 5.19981 107.041 4.77841C106.835 4.35701 106.732 3.86458 106.732 3.30114C106.732 2.73295 106.835 2.23698 107.041 1.81321C107.249 1.38944 107.538 1.06037 107.907 0.825994C108.279 0.591619 108.711 0.474432 109.204 0.474432C109.696 0.474432 110.127 0.591619 110.496 0.825994C110.868 1.06037 111.157 1.38944 111.363 1.81321C111.571 2.23698 111.675 2.73295 111.675 3.30114C111.675 3.86458 111.571 4.35701 111.363 4.77841C111.157 5.19981 110.868 5.5277 110.496 5.76207C110.127 5.99645 109.696 6.11364 109.204 6.11364ZM109.204 5.3608C109.578 5.3608 109.885 5.26491 110.127 5.07315C110.368 4.88139 110.547 4.62926 110.663 4.31676C110.779 4.00426 110.837 3.66572 110.837 3.30114C110.837 2.93655 110.779 2.59683 110.663 2.28196C110.547 1.96709 110.368 1.71259 110.127 1.51847C109.885 1.32434 109.578 1.22727 109.204 1.22727C108.83 1.22727 108.522 1.32434 108.28 1.51847C108.039 1.71259 107.86 1.96709 107.744 2.28196C107.628 2.59683 107.57 2.93655 107.57 3.30114C107.57 3.66572 107.628 4.00426 107.744 4.31676C107.86 4.62926 108.039 4.88139 108.28 5.07315C108.522 5.26491 108.83 5.3608 109.204 5.3608ZM117.159 0.545454V6H116.321V0.545454H117.159ZM116.832 3.14489V3.92614C116.643 3.99716 116.455 4.0599 116.268 4.11435C116.081 4.16643 115.884 4.20786 115.678 4.23864C115.472 4.26705 115.246 4.28125 115 4.28125C114.382 4.28125 113.886 4.11435 113.512 3.78054C113.14 3.44673 112.955 2.94602 112.955 2.27841V0.53125H113.793V2.27841C113.793 2.55777 113.846 2.78741 113.952 2.96733C114.059 3.14725 114.203 3.28101 114.386 3.36861C114.568 3.4562 114.773 3.5 115 3.5C115.355 3.5 115.676 3.46804 115.962 3.40412C116.251 3.33783 116.541 3.25142 116.832 3.14489ZM122.347 2.8892V3.67045H119.336V2.8892H122.347ZM119.535 0.545454V6H118.697V0.545454H119.535ZM122.987 0.545454V6H122.148V0.545454H122.987ZM126.733 6.11364C126.241 6.11364 125.808 5.99645 125.437 5.76207C125.067 5.5277 124.779 5.19981 124.57 4.77841C124.364 4.35701 124.261 3.86458 124.261 3.30114C124.261 2.73295 124.364 2.23698 124.57 1.81321C124.779 1.38944 125.067 1.06037 125.437 0.825994C125.808 0.591619 126.241 0.474432 126.733 0.474432C127.225 0.474432 127.656 0.591619 128.026 0.825994C128.397 1.06037 128.686 1.38944 128.892 1.81321C129.1 2.23698 129.205 2.73295 129.205 3.30114C129.205 3.86458 129.1 4.35701 128.892 4.77841C128.686 5.19981 128.397 5.5277 128.026 5.76207C127.656 5.99645 127.225 6.11364 126.733 6.11364ZM126.733 5.3608C127.107 5.3608 127.415 5.26491 127.656 5.07315C127.898 4.88139 128.076 4.62926 128.192 4.31676C128.308 4.00426 128.366 3.66572 128.366 3.30114C128.366 2.93655 128.308 2.59683 128.192 2.28196C128.076 1.96709 127.898 1.71259 127.656 1.51847C127.415 1.32434 127.107 1.22727 126.733 1.22727C126.359 1.22727 126.051 1.32434 125.81 1.51847C125.568 1.71259 125.389 1.96709 125.273 2.28196C125.157 2.59683 125.099 2.93655 125.099 3.30114C125.099 3.66572 125.157 4.00426 125.273 4.31676C125.389 4.62926 125.568 4.88139 125.81 5.07315C126.051 5.26491 126.359 5.3608 126.733 5.3608Z"
      fill="black" fill-opacity="0.44" />
  </symbol> -->

  <symbol viewBox="0 0 117 12" id="logo">
    <path
      d="M.807.273h1.21l2.42 4.074h.103L6.96.273h1.21l-3.153 5.13V9H3.96V5.403L.807.273zm10.327 8.863c-.59 0-1.11-.14-1.555-.422a2.866 2.866 0 01-1.04-1.18c-.247-.506-.37-1.096-.37-1.773 0-.681.123-1.277.37-1.785A2.86 2.86 0 019.58 2.79c.446-.281.964-.422 1.555-.422s1.108.14 1.551.422c.446.281.793.676 1.04 1.185.25.508.375 1.104.375 1.785 0 .676-.125 1.267-.375 1.773-.247.506-.594.9-1.04 1.18-.443.282-.96.422-1.55.422zm0-.903c.45 0 .818-.115 1.108-.345.29-.23.504-.533.644-.908a3.48 3.48 0 00.209-1.219c0-.437-.07-.845-.21-1.223a2.062 2.062 0 00-.643-.916c-.29-.233-.659-.35-1.108-.35-.449 0-.818.117-1.108.35-.29.233-.504.539-.643.916a3.51 3.51 0 00-.209 1.223c0 .438.07.844.209 1.22.139.374.354.677.643.907.29.23.66.345 1.108.345zm8.626-1.91V2.456h1.006V9H19.76V7.892h-.068a2.147 2.147 0 01-.716.848c-.324.23-.733.345-1.227.345-.41 0-.773-.09-1.091-.268a1.879 1.879 0 01-.75-.818c-.182-.367-.273-.829-.273-1.385v-4.16h1.006v4.091c0 .478.134.858.4 1.143.27.284.614.426 1.032.426.25 0 .504-.064.763-.192.26-.128.48-.324.656-.588.179-.264.268-.601.268-1.01zm8.694 2.813a2.563 2.563 0 01-1.444-.413c-.418-.278-.744-.67-.98-1.176-.236-.509-.354-1.11-.354-1.803 0-.687.118-1.284.354-1.79.236-.505.564-.896.984-1.171.42-.276.907-.414 1.458-.414.426 0 .762.071 1.01.213.25.14.44.299.57.478.134.176.238.32.312.434h.085V.273h1.005V9h-.971V7.994h-.12a5.85 5.85 0 01-.315.452c-.136.179-.33.34-.583.482-.253.139-.59.208-1.01.208zm.137-.903c.403 0 .744-.105 1.023-.315.278-.213.49-.507.635-.882a3.64 3.64 0 00.217-1.309c0-.488-.071-.916-.213-1.282a1.866 1.866 0 00-.63-.861c-.28-.208-.623-.311-1.032-.311-.426 0-.781.11-1.065.328a1.96 1.96 0 00-.635.882c-.14.37-.21.784-.21 1.244 0 .466.072.89.214 1.27.145.378.358.68.64.904.283.221.636.332 1.056.332zm7.504.903c-.59 0-1.11-.14-1.555-.422a2.866 2.866 0 01-1.04-1.18c-.247-.506-.37-1.096-.37-1.773 0-.681.123-1.277.37-1.785a2.86 2.86 0 011.04-1.185c.446-.281.964-.422 1.555-.422s1.108.14 1.551.422c.446.281.793.676 1.04 1.185.25.508.375 1.104.375 1.785 0 .676-.125 1.267-.375 1.773-.247.506-.594.9-1.04 1.18-.443.282-.96.422-1.55.422zm0-.903c.449 0 .818-.115 1.108-.345.29-.23.504-.533.644-.908.139-.375.208-.781.208-1.219 0-.437-.07-.845-.208-1.223a2.061 2.061 0 00-.644-.916c-.29-.233-.659-.35-1.108-.35-.449 0-.818.117-1.108.35a2.06 2.06 0 00-.643.916c-.14.378-.21.786-.21 1.223 0 .438.07.844.21 1.22.139.374.353.677.643.907.29.23.66.345 1.108.345zm5.507-3.17V9h-1.006V2.455h.972v1.022h.085c.154-.332.386-.6.699-.8.312-.205.716-.308 1.21-.308.443 0 .831.091 1.163.273.333.179.591.452.776.818.185.364.277.824.277 1.38V9h-1.006V4.91c0-.515-.133-.916-.4-1.203-.267-.29-.634-.434-1.1-.434-.32 0-.608.07-.86.209-.25.139-.448.342-.593.609-.145.267-.217.59-.217.971zm6.883-4.79v3h-.937v-3h.937zm4.638 2.182v.852H49.73v-.852h3.392zM50.719.886h1.006v6.239c0 .284.041.497.123.64a.64.64 0 00.324.28 1.3 1.3 0 00.422.069c.11 0 .202-.006.273-.017l.17-.034.205.903a2.04 2.04 0 01-.286.077 2.102 2.102 0 01-.464.042c-.284 0-.563-.06-.835-.183a1.66 1.66 0 01-.674-.558c-.176-.25-.264-.566-.264-.946V.886zm9.763 8.25a2.563 2.563 0 01-1.445-.413c-.417-.278-.744-.67-.98-1.176-.236-.509-.354-1.11-.354-1.803 0-.687.118-1.284.354-1.79.236-.505.564-.896.984-1.171.421-.276.907-.414 1.458-.414.426 0 .763.071 1.01.213.25.14.44.299.57.478.134.176.238.32.312.434h.085V.273h1.006V9h-.972V7.994h-.119c-.074.12-.179.27-.315.452a1.87 1.87 0 01-.584.482c-.253.139-.59.208-1.01.208zm.136-.903c.404 0 .745-.105 1.023-.315.278-.213.49-.507.635-.882.145-.378.217-.814.217-1.309 0-.488-.07-.916-.213-1.282a1.867 1.867 0 00-.63-.861c-.279-.208-.623-.311-1.032-.311-.426 0-.781.11-1.065.328-.281.216-.493.51-.635.882a3.49 3.49 0 00-.209 1.244c0 .466.071.89.213 1.27.145.378.358.68.64.904.284.221.636.332 1.056.332zm7.505.903c-.591 0-1.11-.14-1.556-.422a2.866 2.866 0 01-1.04-1.18c-.247-.506-.37-1.096-.37-1.773 0-.681.123-1.277.37-1.785a2.86 2.86 0 011.04-1.185c.446-.281.965-.422 1.556-.422.59 0 1.108.14 1.55.422a2.81 2.81 0 011.04 1.185c.25.508.375 1.104.375 1.785 0 .676-.125 1.267-.375 1.773-.247.506-.593.9-1.04 1.18-.442.282-.96.422-1.55.422zm0-.903c.448 0 .818-.115 1.108-.345.29-.23.504-.533.643-.908.14-.375.209-.781.209-1.219 0-.437-.07-.845-.21-1.223a2.062 2.062 0 00-.642-.916c-.29-.233-.66-.35-1.108-.35-.45 0-.819.117-1.108.35-.29.233-.505.539-.644.916a3.51 3.51 0 00-.209 1.223c0 .438.07.844.21 1.22.138.374.353.677.643.907.29.23.659.345 1.108.345zm10.62.903c-.63 0-1.175-.139-1.632-.417a2.803 2.803 0 01-1.053-1.176c-.244-.506-.366-1.094-.366-1.765 0-.67.122-1.26.366-1.772a2.888 2.888 0 011.031-1.202c.444-.29.96-.435 1.552-.435.34 0 .677.057 1.01.17.332.114.635.3.907.555.273.253.49.588.652 1.005.162.418.243.932.243 1.543v.426h-5.045v-.87h4.022c0-.368-.074-.698-.221-.988a1.67 1.67 0 00-.622-.686 1.742 1.742 0 00-.946-.251c-.4 0-.748.1-1.04.298a1.97 1.97 0 00-.67.767 2.254 2.254 0 00-.234 1.014v.58c0 .494.086.913.256 1.257.173.34.413.6.72.78a2.11 2.11 0 001.07.264 2.2 2.2 0 00.716-.11c.216-.078.402-.191.558-.342a1.55 1.55 0 00.362-.57l.972.272c-.102.33-.274.62-.516.87-.241.246-.54.44-.895.579a3.319 3.319 0 01-1.197.204zm5.246-4.073V9h-1.006V2.455h.971v1.022h.086c.153-.332.386-.6.699-.8.312-.205.715-.308 1.21-.308.443 0 .83.091 1.163.273.333.179.591.452.776.818.184.364.277.824.277 1.38V9h-1.006V4.91c0-.515-.133-.916-.4-1.203-.267-.29-.634-.434-1.1-.434-.32 0-.608.07-.86.209-.25.139-.448.342-.593.609-.145.267-.217.59-.217.971zm8.673 4.073c-.591 0-1.11-.14-1.556-.422a2.866 2.866 0 01-1.04-1.18c-.247-.506-.37-1.096-.37-1.773 0-.681.123-1.277.37-1.785a2.86 2.86 0 011.04-1.185c.446-.281.965-.422 1.556-.422.59 0 1.107.14 1.55.422a2.81 2.81 0 011.04 1.185c.25.508.376 1.104.376 1.785 0 .676-.126 1.267-.376 1.773-.247.506-.593.9-1.04 1.18-.443.282-.96.422-1.55.422zm0-.903c.448 0 .818-.115 1.107-.345.29-.23.505-.533.644-.908.14-.375.209-.781.209-1.219 0-.437-.07-.845-.209-1.223a2.061 2.061 0 00-.644-.916c-.29-.233-.659-.35-1.107-.35-.45 0-.819.117-1.108.35a2.06 2.06 0 00-.644.916 3.51 3.51 0 00-.209 1.223c0 .438.07.844.21 1.22.138.374.353.677.643.907.29.23.659.345 1.108.345zm8.626-1.91V2.456h1.005V9h-1.005V7.892h-.069a2.149 2.149 0 01-.715.848c-.324.23-.733.345-1.228.345-.409 0-.772-.09-1.09-.268a1.879 1.879 0 01-.75-.818c-.182-.367-.273-.829-.273-1.385v-4.16h1.005v4.091c0 .478.134.858.4 1.143.27.284.615.426 1.032.426.25 0 .504-.064.763-.192.261-.128.48-.324.656-.588.179-.264.269-.601.269-1.01zm5.489 5.268c-.485 0-.903-.063-1.252-.188a2.656 2.656 0 01-.874-.485 2.674 2.674 0 01-.55-.64l.801-.562c.091.12.206.256.346.409.139.156.329.291.571.405.244.116.563.175.958.175.529 0 .965-.128 1.309-.384.343-.256.515-.656.515-1.202V7.79h-.085c-.074.12-.179.268-.315.444a1.794 1.794 0 01-.58.464c-.25.134-.588.2-1.014.2a2.728 2.728 0 01-1.423-.374 2.627 2.627 0 01-.993-1.091c-.242-.477-.363-1.057-.363-1.739 0-.67.118-1.254.354-1.751.236-.5.564-.887.985-1.16.42-.275.906-.413 1.457-.413.426 0 .764.071 1.014.213.253.14.446.299.58.478.136.176.241.32.315.434h.102v-1.04h.972v6.734c0 .562-.128 1.02-.384 1.372a2.178 2.178 0 01-1.022.78 3.861 3.861 0 01-1.424.25zm-.034-3.597c.404 0 .745-.092 1.023-.277.278-.184.49-.45.635-.797.145-.346.217-.76.217-1.244 0-.471-.071-.888-.213-1.248a1.875 1.875 0 00-.63-.848c-.279-.205-.623-.307-1.032-.307-.426 0-.781.108-1.065.324a1.974 1.974 0 00-.635.869 3.365 3.365 0 00-.209 1.21c0 .455.071.857.213 1.206.145.347.358.62.639.818.285.196.637.294 1.057.294zm5.71-2.931V9h-1.005V.273h1.005v3.204h.086c.153-.338.383-.606.69-.805.31-.202.722-.303 1.236-.303.446 0 .836.09 1.172.269.335.176.595.447.78.814.187.363.281.826.281 1.389V9h-1.006V4.91c0-.52-.135-.923-.405-1.207-.267-.287-.637-.43-1.112-.43-.329 0-.625.07-.886.209a1.524 1.524 0 00-.614.609c-.148.267-.222.59-.222.971z"
      fill="#000" />
  </symbol>


</svg>
